PathFileType	4	(X/Y/Z)	OpenSim_Sub08_CSStiffKnee_Magnet.trc
DataRate	CameraRate	NumFrames	NumMarkers	Units	OrigDataRate	OrigDataStartFrame	OrigNumFrames
100	100	36	8	m	100	3962	5282
Frame#	Time	torso_imu_offset_imu	pelvis_imu_offset_imu	tibia_r_imu_offset_imu	femur_r_imu_offset_imu	tibia_l_imu_offset_imu	femur_l_imu_offset_imu	toes_r_imu_offset_imu	toes_l_imu_offset_imu
				X1	Y1	Z1	X2	Y2	Z2	X3	Y3	Z3	X4	Y4	Z4	X5	Y5	Z5	X6	Y6	Z6	X7	Y7	Z7	X8		Y8	Z8	

3962	39.61000000	-0.92427964	-0.17135736	0.15484979	-0.61918846	0.23443452	-0.69510784	-0.77077485	-0.36135555	-0.09016503	-0.82015910	-0.23582680	-0.12338206	-0.38547098	0.67015589	0.35444402	-0.49084281	0.19007800	0.41002561	-0.55009616	-0.16254684	-0.53745308	-0.82942454	-0.14590707	-0.12002331
3963	39.62000000	-0.92829753	-0.16970582	0.15399873	-0.61499851	0.23461197	-0.69391624	-0.77144303	-0.36554175	-0.08132571	-0.82395140	-0.24076506	-0.12037021	-0.37088574	0.67609795	0.35414312	-0.49382366	0.18483696	0.40714305	-0.56163439	-0.16977516	-0.52647811	-0.83438300	-0.14062022	-0.09446121
3964	39.63000000	-0.93436936	-0.16370561	0.14602480	-0.61326163	0.23928809	-0.70156046	-0.76991978	-0.37206621	-0.06552063	-0.81848157	-0.24959933	-0.11333799	-0.35583892	0.68783082	0.34974089	-0.49205317	0.18370103	0.40024658	-0.57543528	-0.17760703	-0.50992272	-0.83716372	-0.12492417	-0.05755174
3965	39.64000000	-0.93142377	-0.16653026	0.14636369	-0.61264772	0.24576642	-0.69784178	-0.76768297	-0.38676390	-0.04288216	-0.81798321	-0.25101288	-0.10923334	-0.33805370	0.70008002	0.35092808	-0.49032614	0.18018128	0.39128562	-0.58117225	-0.17585724	-0.49416276	-0.83710388	-0.11740334	-0.02369021
3966	39.65000000	-0.93148969	-0.17292175	0.14501781	-0.61143850	0.25298734	-0.69405379	-0.75590360	-0.40171095	-0.02897024	-0.81851970	-0.25614579	-0.10448414	-0.31974954	0.71228709	0.34353205	-0.49281076	0.17632459	0.39600033	-0.58321321	-0.17755716	-0.48812774	-0.83633452	-0.11161034	0.02126895
3967	39.66000000	-0.93279908	-0.17446875	0.13742882	-0.61203702	0.26132533	-0.69473493	-0.74800786	-0.42100556	-0.02308937	-0.81537723	-0.25830720	-0.09908073	-0.29939103	0.72442111	0.33369172	-0.50388458	0.16811061	0.39748633	-0.59018739	-0.17836589	-0.48280203	-0.83333817	-0.11108393	0.07710267
3968	39.67000000	-0.93372048	-0.17580374	0.13168403	-0.61201390	0.26366170	-0.68917598	-0.74409894	-0.43395055	-0.01468864	-0.81505252	-0.25697866	-0.09816170	-0.28078145	0.73597435	0.32213068	-0.50586944	0.15184235	0.39305209	-0.60422434	-0.16674765	-0.47818813	-0.82576768	-0.11333680	0.13055500
3969	39.68000000	-0.93458448	-0.18219080	0.12965756	-0.61251736	0.26602924	-0.68454716	-0.73906689	-0.43779525	-0.00507082	-0.81326859	-0.26168777	-0.09213411	-0.25579890	0.74424788	0.30640668	-0.51203454	0.14230549	0.38363755	-0.60778224	-0.16126564	-0.47160383	-0.81162160	-0.11248199	0.19208759
3970	39.69000000	-0.93512046	-0.18548932	0.12428348	-0.61742290	0.27308120	-0.68210214	-0.73789626	-0.44279647	0.00189140	-0.81370839	-0.26856411	-0.08978785	-0.22947169	0.76100326	0.29654211	-0.52298928	0.12946220	0.36664897	-0.60615582	-0.16606641	-0.46642219	-0.78864791	-0.10824674	0.24794414
3971	39.70000000	-0.93110581	-0.18467741	0.12326990	-0.61542254	0.27122309	-0.68357028	-0.73360196	-0.45095975	-0.00224905	-0.81153661	-0.27294252	-0.09052375	-0.20946158	0.76899220	0.28409674	-0.52873047	0.11074970	0.35945294	-0.61731524	-0.17623845	-0.46254417	-0.76996152	-0.10019394	0.29993086
3972	39.71000000	-0.93506094	-0.18569466	0.12589092	-0.61275132	0.26675155	-0.68618451	-0.73226578	-0.45621477	-0.00284394	-0.80654079	-0.28105369	-0.08760789	-0.18902912	0.77454055	0.27345979	-0.53912171	0.09501925	0.35133190	-0.61290836	-0.18485527	-0.46495689	-0.74817325	-0.08476000	0.35409044
3973	39.72000000	-0.93478918	-0.18927282	0.12234242	-0.61255954	0.26974046	-0.68720020	-0.73388018	-0.45849768	-0.00151205	-0.80312236	-0.29403374	-0.09087470	-0.17074355	0.78570748	0.27266671	-0.54641232	0.07756568	0.34486909	-0.60732108	-0.18852683	-0.47013914	-0.72263498	-0.06326930	0.40120050
3974	39.73000000	-0.93216521	-0.19246806	0.12283866	-0.60186663	0.26701913	-0.69556933	-0.73257350	-0.46324415	-0.00661137	-0.80131441	-0.30031685	-0.09006132	-0.15213443	0.78605866	0.27420825	-0.54912500	0.06551480	0.33874010	-0.61024257	-0.19018814	-0.46964243	-0.69752807	-0.04055119	0.44146692
3975	39.74000000	-0.93698310	-0.19490868	0.12510370	-0.59472005	0.26301479	-0.70136037	-0.72193283	-0.46660083	-0.00558233	-0.79752888	-0.30593797	-0.08040366	-0.13853462	0.78804515	0.27234518	-0.55667766	0.04523201	0.32272139	-0.60811087	-0.19970634	-0.46714891	-0.68229036	-0.02245246	0.46800107
3976	39.75000000	-0.93681639	-0.19458385	0.12845479	-0.58791730	0.26447923	-0.70397732	-0.71071781	-0.47412402	-0.00343754	-0.79525234	-0.30796290	-0.07245503	-0.12356010	0.78606450	0.27819565	-0.56605122	0.02900680	0.32307074	-0.60627144	-0.20748699	-0.47191131	-0.67112060	-0.01154535	0.48276154
3977	39.76000000	-0.93242122	-0.18727828	0.13158515	-0.58397386	0.26225916	-0.70911147	-0.71662754	-0.48434684	0.00257937	-0.79584652	-0.31453442	-0.06511084	-0.11044835	0.78623348	0.28158958	-0.57688247	0.02248705	0.31553805	-0.60923125	-0.20835246	-0.47876311	-0.66804698	0.02316386	0.48379515
3978	39.77000000	-0.92697422	-0.18676602	0.13478698	-0.58802801	0.26366375	-0.71320918	-0.71101153	-0.49126126	0.01097183	-0.79330571	-0.32305753	-0.06023086	-0.10475023	0.78756872	0.28105427	-0.58051902	0.00220086	0.30634745	-0.61058295	-0.21081404	-0.48287851	-0.67921137	0.04660628	0.46432050
3979	39.78000000	-0.92956666	-0.18925227	0.13889719	-0.58701723	0.25922784	-0.71228330	-0.70223646	-0.49692851	0.01145457	-0.78926303	-0.32435446	-0.05758348	-0.09954658	0.78935139	0.27067558	-0.57851706	-0.01215450	0.30590340	-0.60783120	-0.21276601	-0.48474271	-0.69445317	0.04819201	0.44343887
3980	39.79000000	-0.92894651	-0.19147890	0.14632301	-0.58685405	0.25850626	-0.71210313	-0.70648276	-0.50588785	0.01004351	-0.78987668	-0.33145763	-0.05089735	-0.10054680	0.79532108	0.25147640	-0.58929787	-0.01916288	0.29557069	-0.61242124	-0.22117217	-0.49343514	-0.70896134	0.04755080	0.42531704
3981	39.80000000	-0.92840778	-0.19229489	0.14452391	-0.58806017	0.25874912	-0.71399381	-0.70025627	-0.50701498	0.01087153	-0.78902413	-0.33858500	-0.04595623	-0.11032633	0.80209890	0.23190356	-0.59642570	-0.03906200	0.29318634	-0.61283358	-0.23411730	-0.49778599	-0.72278196	0.03507316	0.40256409
3982	39.81000000	-0.93170160	-0.19336493	0.14624762	-0.58895276	0.25062652	-0.71259188	-0.69586118	-0.51347371	0.00890912	-0.78397881	-0.34569623	-0.04371934	-0.12431702	0.80774308	0.21458762	-0.59888122	-0.05499601	0.28598707	-0.61132483	-0.23926887	-0.50202530	-0.73807344	0.02877179	0.37717583
3983	39.82000000	-0.93090443	-0.18774989	0.15485286	-0.58908954	0.24756569	-0.71578817	-0.69360615	-0.51718441	0.00345011	-0.78038477	-0.34668359	-0.04946165	-0.13996584	0.80365690	0.20295872	-0.59929519	-0.06880434	0.27819636	-0.61746662	-0.24313198	-0.50580321	-0.74792729	0.01976267	0.35341195
3984	39.83000000	-0.92487916	-0.19247637	0.15542232	-0.58694556	0.24891821	-0.71670480	-0.68712298	-0.52106053	0.00204120	-0.78030487	-0.34935742	-0.05402795	-0.15719086	0.80309795	0.19461551	-0.59936553	-0.08983212	0.27844085	-0.61647068	-0.24813283	-0.51092550	-0.76054316	0.01705614	0.32529461
3985	39.84000000	-0.92533304	-0.19663975	0.15976848	-0.59050220	0.24473797	-0.71640536	-0.68412217	-0.52702021	-0.00017153	-0.77585501	-0.35650273	-0.04863669	-0.18015395	0.80227954	0.18709636	-0.60218093	-0.10775605	0.27866174	-0.61367252	-0.25460145	-0.51741767	-0.78088295	0.01656601	0.30024260
3986	39.85000000	-0.92832257	-0.19299138	0.16171200	-0.58952965	0.23545028	-0.71653438	-0.68188697	-0.53025000	-0.00981021	-0.77475185	-0.36086153	-0.05318405	-0.20450007	0.79155401	0.18120355	-0.60668736	-0.12660368	0.27002682	-0.62033850	-0.26648088	-0.52310256	-0.79872493	0.01357120	0.26444461
3987	39.86000000	-0.92799683	-0.19228361	0.16210291	-0.58873209	0.23494016	-0.72278710	-0.67963707	-0.53706755	-0.01317152	-0.76960821	-0.36756179	-0.05893838	-0.23094163	0.78418842	0.18501258	-0.60748226	-0.14431110	0.25960922	-0.62466886	-0.27246203	-0.52316846	-0.81297595	0.00672470	0.21607346
3988	39.87000000	-0.92728651	-0.18576093	0.16527874	-0.58556898	0.23250319	-0.72297620	-0.67671348	-0.54340180	-0.01535396	-0.76574293	-0.37296157	-0.05536070	-0.26818516	0.77078780	0.19318777	-0.60370322	-0.15839366	0.25885904	-0.62335456	-0.28087711	-0.52365924	-0.83227704	0.00005798	0.16361891
3989	39.88000000	-0.92456402	-0.18906068	0.17156412	-0.58663024	0.23031106	-0.72274159	-0.67060724	-0.54808151	-0.01595715	-0.76715155	-0.36877169	-0.05818132	-0.30324971	0.75909376	0.20169184	-0.61066923	-0.17603238	0.25097513	-0.62385489	-0.29030677	-0.53462996	-0.84634991	0.00247173	0.11278865
3990	39.89000000	-0.92356191	-0.19352497	0.18346977	-0.58444969	0.22931057	-0.73124168	-0.66652319	-0.54768730	-0.01807820	-0.76464947	-0.37668368	-0.06427139	-0.33808998	0.73778953	0.20561237	-0.61401786	-0.18841082	0.24456344	-0.62142924	-0.29886181	-0.53648931	-0.85757782	-0.00247004	0.04947223
3991	39.90000000	-0.92369909	-0.18982507	0.18766855	-0.57892577	0.22866664	-0.73025245	-0.66330013	-0.55270419	-0.02928557	-0.75939330	-0.38499171	-0.06867524	-0.37521362	0.70954851	0.21206404	-0.61709621	-0.20017671	0.23854223	-0.62364452	-0.31066373	-0.53740006	-0.85648682	-0.01648618	-0.01575470
3992	39.91000000	-0.92387775	-0.18926401	0.19305504	-0.57790312	0.22516073	-0.73376517	-0.66053103	-0.55717084	-0.02511828	-0.75695020	-0.38577796	-0.06291228	-0.41630503	0.69394568	0.22673872	-0.61898354	-0.21278732	0.22945915	-0.62767632	-0.32152113	-0.54492806	-0.84730516	-0.03100873	-0.06622417
3993	39.92000000	-0.92278180	-0.18837289	0.20051243	-0.57256586	0.22200745	-0.73303114	-0.66189251	-0.55894346	-0.02536032	-0.75897978	-0.39474256	-0.06282264	-0.45880389	0.66136776	0.22769120	-0.61937252	-0.22153299	0.23354567	-0.62584284	-0.32726424	-0.54896993	-0.83571405	-0.04954153	-0.12495548
3994	39.93000000	-0.92109744	-0.18566318	0.20307587	-0.56936404	0.22006161	-0.73260752	-0.65686631	-0.56771195	-0.03548930	-0.75714993	-0.40070204	-0.06723592	-0.49643539	0.63079714	0.22193450	-0.62133090	-0.22569759	0.23049304	-0.62899308	-0.33722666	-0.54917073	-0.82015313	-0.07789404	-0.17418692
3995	39.94000000	-0.91620607	-0.18570327	0.20568995	-0.56773272	0.21857872	-0.74309479	-0.64912087	-0.57325588	-0.03739572	-0.75539123	-0.40525252	-0.06010843	-0.53390940	0.60129931	0.22459757	-0.61838752	-0.22717926	0.21884106	-0.62820459	-0.34580100	-0.55027667	-0.80106155	-0.09921069	-0.21387947
3996	39.95000000	-0.91264489	-0.18797786	0.20652607	-0.56375885	0.22108537	-0.74801870	-0.64789585	-0.57353102	-0.03926206	-0.75076576	-0.41236912	-0.06537637	-0.56900824	0.56294264	0.22391298	-0.62225015	-0.23081935	0.22583798	-0.62820868	-0.35033761	-0.55148059	-0.78108267	-0.11526107	-0.24873569
3997	39.96000000	-0.91328636	-0.18341678	0.20715865	-0.56303527	0.22447292	-0.74578853	-0.64720349	-0.58116767	-0.03642028	-0.74496175	-0.41524076	-0.06879758	-0.60634827	0.52186864	0.21724413	-0.62060888	-0.22658620	0.23406839	-0.63487069	-0.36155008	-0.55114334	-0.76983078	-0.13505915	-0.28660001
